<?xml version="1.0" encoding="utf-8"?>
<!-- Generator: Adobe Illustrator 26.5.0, SVG Export Plug-In . SVG Version: 6.00 Build 0)  -->
<svg version="1.1" id="레이어_1" xmlns="http://www.w3.org/2000/svg" xmlns:xlink="http://www.w3.org/1999/xlink" x="0px"
	 y="0px" viewBox="0 0 84.2 84.2" style="enable-background:new 0 0 84.2 84.2;" xml:space="preserve">
<style type="text/css">
	.st0{fill:#A7CE48;}
	.st1{fill:#EE7E6C;}
</style>
<g>
	<path class="st0" d="M42.1,0C18.85,0,0,18.85,0,42.1c0,23.25,18.85,42.1,42.1,42.1s42.1-18.85,42.1-42.1C84.2,18.85,65.35,0,42.1,0
		z M64.25,47.21C59.65,67.15,46,81.02,33.77,78.2c-12.23-2.82-18.42-21.28-13.82-41.21C24.55,17.05,38.2,3.18,50.43,6
		C62.67,8.83,68.85,27.28,64.25,47.21z"/>
	<path class="st1" d="M54.88,22.4c-1.4,6.03-6.03,10.09-10.33,9.09c-4.31-1-6.67-6.68-5.29-12.7c1.4-6,6.01-10.07,10.32-9.08
		C53.9,10.71,56.26,16.39,54.88,22.4z"/>
</g>
</svg>
